<?xml version="1.0" encoding="utf-8"?>
<!-- Generator: Adobe Illustrator 19.0.0, SVG Export Plug-In . SVG Version: 6.00 Build 0)  -->
<svg version="1.1" id="Laag_1" xmlns="http://www.w3.org/2000/svg" xmlns:xlink="http://www.w3.org/1999/xlink" x="0px" y="0px"
	 viewBox="0 0 960 560" style="enable-background:new 0 0 960 560;" xml:space="preserve">
<path class="st0" d="M677.9,519.1c-1.4,0.5-3.1,1.2-5,2.1c2.5-1,5-2,7.5-3C679.6,518.5,678.8,518.7,677.9,519.1z"/>
<path class="st1" d="M680.3,518.2c0.7-0.3,1.4-0.5,2.1-0.8c1.1-0.5,2.1-1.1,3.1-2.1c1.5-1.5,2.3-3,3.2-5.1c0.1-0.1,0.1-0.3,0.2-0.4
	c0.5-1.4,1-2.7,1.5-4.1c0.4-1.5,0.8-3.2,1.1-5.1c0.1-14.8,0.2-37.6,0.2-65.4c0-4.1,0-8,0-11.7c-0.5-115.1-1-230.1-1.5-345.2
	c0-2.7-0.1-5.4-0.1-8.2c-0.2-14.4-0.4-26.1-0.5-33.4c-0.2-2.4-0.7-5.3-1.8-8.5c-0.6-1.7-1.2-3.3-1.8-4.7c-0.5-1-1.3-2.5-2.6-4
	c-2.6-3-5.6-4.6-11.7-7.1c-0.4-0.2-0.9-0.3-1.3-0.5c-3-1.1-6.1-2.2-9.1-3.3c-1.2-0.4-2.5-0.8-3.8-1.2c-0.2-0.1,2.2,1.1,7.2,3.9
	c5.7,3.1,8.5,4.7,9.3,6.2c1.3,2.3,1,4.7,3.7,9.1c0.2,0.3,0.4,0.6,0.5,0.8c-0.1,264.9-0.1,456.9,0.4,469.1c0.1,1.9,0.6,9.7-3.5,17.7
	c-1.8,3.6-4,6.3-5.9,8.2c1.2-0.5,2.4-0.9,3.5-1.4c2-0.9,3.7-1.6,5-2.1C678.8,518.7,679.6,518.5,680.3,518.2z"/>
<path class="st2" d="M678.7,496.6c-0.5-12.2-0.5-204.2-0.4-469.1c-0.1-0.2-0.3-0.5-0.5-0.8c-2.7-4.4-2.4-6.8-3.7-9.1
	c-0.8-1.5-3.7-3.1-9.3-6.2c-5-2.7-7.4-3.9-7.2-3.9c1.3,0.4,2.6,0.8,3.8,1.2c-3.8-1.4-7.6-2.7-11.5-4.1c-17.5,2.7-35.1,5.5-52.6,8.2
	c-1.3-0.6-2.5-1.2-3.8-1.8c-0.5-0.4-1.2-0.8-2.1-1.1c-2.2-0.7-4.1-0.3-4.9,0c-94,15.7-188.1,31.3-282.1,47c-2.4,1.3-4.2,2.7-5.7,3.5
	c-1.1,0.6-3.1,1.8-4.7,4.1c-1.4,1.9-1.9,3.8-2.2,4.9c-0.3,2.6-0.7,5.1-1,7.7c-0.6,132.5-1.2,265-1.8,397.5c2.6,5,5.2,9.9,7.7,14.9
	c4.7,3.2,9.4,6.4,14.2,9.7C420,510,529.1,520.9,638.1,531.7c2.5,0.2,4.9,0.5,7.4,0.7c2.3-1,4.7-2,7-3c5.6-2.4,11.3-4.7,16.8-6.9
	c1.9-1.9,4.1-4.6,5.9-8.2C679.4,506.3,678.8,498.5,678.7,496.6z M432.7,240.8c1.2-4.6,3-5.1,4.3-4c1.3,1.1,2.2,4,2.2,4l6.8,21
	l-4.8,0.1l-5-15.4c-0.6-1.8-1.3-2-1.7-0.6c-0.4,1.4-0.2,4,0.3,5.8l3.3,10.3l-5,0.1l-0.2-0.6c0,0-1-3-1.4-7.2
	C431,250,431.4,244.8,432.7,240.8z M441,290.9c-1.1,4.7-3.4,5.5-4.8,3.4c-1.3-1.9-2.3-5.3-2.3-5.3l-4.4-13.7l4.8-0.1l3.2,9.9
	c0.6,1.7,1.3,2,1.7,0.6c0.4-1.4,0.2-4-0.3-5.8l-1.6-4.7l4.3-0.1c0.1,0.3,0.1,0.6,0.2,0.9C442.6,280.8,442.4,285.9,441,290.9z
	 M444,273.2l-36.6,0.5c0.6-4.1,2.1-10.1,2.9-13.3c2.3-8.2,5.2-11,12-11.1c6.6-0.1,9.1,4.6,6.7,10.6l-12.3,0.2
	c-1.4,0-2.8,0.3-3.1,1.9c-0.3,1.2,0.7,1.9,2.1,1.9l30.7-0.4L444,273.2z"/>
</svg>
