<svg xmlns="http://www.w3.org/2000/svg" viewBox="0 0 528.6 341.05"><g id="Laag_2" data-name="Laag 2"><g id="Laag_1-2" data-name="Laag 1"><path d="M528.43,240.36c-.85-24.94-1.68-49.46-8.2-82.83-6.37-32.52-14.78-56.29-20.68-72.74a568.73,568.73,0,0,0-26-61,303.1,303.1,0,0,0-80-16.83,4.12,4.12,0,0,1-1.46,1.94c-2,1.44-4.55.28-4.67.22-14.33-2.16-32-4.44-52.33-6.16A678.7,678.7,0,0,0,263.66.08c-38.4.63-105.3,5.45-114.47,8.12-1.25.36-5.05,1.74-9.15.67-1.34-.35-4.84-1.51-4.85-1.52C95,13.7,85.68,15.75,85.68,15.75,72.17,18.7,55.39,23.06,55.2,23.11c-.42,1-18.79,40.25-31.4,78.58A480.43,480.43,0,0,0,6.11,174.3a449.25,449.25,0,0,0-6,79.85c.2,10.3.75,18.9,1.24,25a114.88,114.88,0,0,0,7.76,31.68c3.48,8.61,6.57,16,14.12,22.25,1.5,1.24,13.65,11.1,21.4,7a10.21,10.21,0,0,0,4.25-4.85c6.67-13.86,15.5-42.23,17-47.06,4-11.76,9.21-25.9,15.86-41.72,8.59-20.46,16-35.09,23-48.82,10.6-20.9,16-31.54,23-40.68,11.69-15.5,18.56-23.37,18.56-23.37,5.68-6.49,10.25-11.19,15-19.61,3-5.21,5.25-9.26,6.44-15.07,1.42-7,.3-11.82-2.77-25.94-3.81-17.58-5.59-26.4-5.71-26.78-.52-1.56-6.13-18.44-5.63-27.67a10.37,10.37,0,0,1,2.17-6.22,9.86,9.86,0,0,1,5-3.08,34.62,34.62,0,0,0-1.51,11.51c.22,5.37,1.68,9,2.91,12.83.64,2,1.81,8.17,4.14,20.54,5,26.6,5.08,31.06,9,40.56,3.62,8.75,6.59,12.26,10,14.6,6.36,4.3,13.41,4,16.92,3.89,13.75-.46,32.44-.2,56.66.41l67.81-.83a24.37,24.37,0,0,0,14.18-2.3,24.64,24.64,0,0,0,9.52-8.89c3.28-5,2.94-7.83,7-23,1.3-4.93,1.18-4,2.42-8.69,3.66-13.83,3.07-15.78,6.13-28.86,3.22-13.79,5.74-19.61,3.34-28.58-.25-1-.51-1.74-.69-2.25a6.29,6.29,0,0,1,4.22,1.16,6.67,6.67,0,0,1,2.23,4.37c1.11,6.15-.62,12.75-1.59,16.54s-1.65,7.75-2.79,11.54C363.51,67.17,359.51,81,362.08,96.2a50.81,50.81,0,0,0,4.28,14c3,6.23,6.13,9.26,13.41,18.25,3.72,4.61,7.19,9.41,10.84,14.07C402,157,417.14,182,429.89,208.23c3.51,7.22.5,1.61,18.78,43.6,7.82,18,12.58,28.68,17.73,44.44,3.38,10.34,5.66,19,7.09,24.83.17.84,3.48,16.37,13.78,18.94s20.07-9.76,24.37-15.21c6.55-8.29,10.48-18,13.59-36.07A234.42,234.42,0,0,0,528.43,240.36ZM85.66,60a5.73,5.73,0,0,1,1.67-4,5.86,5.86,0,0,1,4-1.67,40.45,40.45,0,0,1,15.73,0A5.71,5.71,0,0,1,112.81,60V74.52a5.72,5.72,0,0,1-1.65,4l-7.87,7.93a5.7,5.7,0,0,1-8.11,0l-7.87-7.93a5.76,5.76,0,0,1-1.65-4Zm-4.58,48a5.72,5.72,0,0,1-4,1.65H62.58a5.72,5.72,0,0,1-4-1.67,5.86,5.86,0,0,1-1.67-4,40.45,40.45,0,0,1,0-15.73,5.71,5.71,0,0,1,5.71-5.71H77.06a5.73,5.73,0,0,1,4,1.66L89,92a5.7,5.7,0,0,1,0,8.11Zm31.73,24.22a5.69,5.69,0,0,1-1.67,4,5.84,5.84,0,0,1-4,1.68,40.45,40.45,0,0,1-15.73,0,5.71,5.71,0,0,1-5.71-5.71V117.76a5.74,5.74,0,0,1,1.65-4l7.87-7.94a5.72,5.72,0,0,1,8.11,0l7.87,7.94a5.7,5.7,0,0,1,1.65,4ZM142.14,104a5.86,5.86,0,0,1-1.67,4,5.72,5.72,0,0,1-4,1.67H122a5.72,5.72,0,0,1-4-1.65L110,100.15A5.7,5.7,0,0,1,110,92l7.93-7.86a5.73,5.73,0,0,1,4-1.66h14.48a5.71,5.71,0,0,1,5.71,5.71,40.45,40.45,0,0,1,0,15.73Zm248.24,9.31A17.22,17.22,0,1,1,407.6,96.05,17.22,17.22,0,0,1,390.38,113.27Zm38.72,38.82a17.22,17.22,0,1,1,17.22-17.22A17.22,17.22,0,0,1,429.1,152.09Zm0-77.31a17.22,17.22,0,1,1,17.22-17.22A17.22,17.22,0,0,1,429.1,74.78Zm38.7,38.49A17.22,17.22,0,1,1,485,96.05,17.21,17.21,0,0,1,467.8,113.27Z" style="fill:#e6007e"/></g></g></svg>