<!-- Generator: Adobe Illustrator 19.0.0, SVG Export Plug-In  -->
<svg version="1.1"
	 xmlns="http://www.w3.org/2000/svg" xmlns:xlink="http://www.w3.org/1999/xlink" xmlns:a="http://ns.adobe.com/AdobeSVGViewerExtensions/3.0/"
	 x="0px" y="0px" width="608.1px" height="469px" viewBox="0 0 608.1 469" style="fill: #eee;"
	 xml:space="preserve">
<defs>
</defs>
<path d="M227.5,0c8.2,1.8,16.1,3.4,24,5.2c40.9,9.7,81.2,21.4,120.8,35.3c18.4,6.5,36,14.5,52.3,25.4c26.4,17.7,42.2,42.3,47.9,73.4
	c3.9,21.1,4.9,42.4,2.5,63.7c-1.9,16.5-6.4,32.3-16.5,45.9c-13.7,18.4-32.5,25.4-54.9,23.6c-12.2-1-23.7-4.7-34.8-9.7
	c-2.1-0.9-2.8-2-2.8-4.3c0.1-47.4,0.1-94.8,0.1-142.3c0-7.3-0.3-14.5-2.5-21.5c-2.7-9.1-8.3-15.3-17.7-17.7
	c-5.8-1.5-10.6,0.2-14.2,5c-3.4,4.7-4.5,10.1-5,15.6c-0.2,2.5-0.2,4.9-0.2,7.4c0,120.1,0,240.2,0,360.3c0,1.1,0,2.2,0,3.5
	c-0.9-0.2-1.5-0.2-2.1-0.4c-31.7-10-63.3-20.1-95-30.1c-1.5-0.5-2.2-1.1-1.9-2.7c0.1-0.4,0-0.9,0-1.3c0-143.6,0-287.3,0-430.9
	C227.5,2.6,227.5,1.5,227.5,0z"/>
<path d="M345.3,368.5c0-1.3,0-2.1,0-2.9c0-17.9,0-35.8-0.1-53.7c0-2.1,0.6-2.9,2.6-3.6c24.4-8.2,49.4-13.6,75-16.4
	c42.1-4.8,83.6-1.2,124.2,10.9c11.9,3.5,23.5,8.2,35,12.9c7.5,3.1,14.2,7.7,19.6,14c8.7,10,8.6,21.5-0.3,31.3
	c-7.6,8.3-16.9,14.1-27.1,18.5c-13,5.6-26.2,10.5-39.5,15.3c-54.4,19.6-108.8,39.1-163.2,58.7c-7.9,2.8-15.9,5.7-23.8,8.5
	c-0.6,0.2-1.3,0.4-2.2,0.6c-0.1-1.1-0.1-2-0.1-2.9c0-17.1,0-34.3-0.1-51.4c0-2.1,0.7-2.9,2.6-3.6c51.8-18.4,103.7-36.9,155.5-55.3
	c3.2-1.1,6.3-2.5,9.3-4.1c1.9-1,3.7-2.4,5.3-4c3.5-3.5,3.2-7.3-1-9.8c-3-1.8-6.4-3.3-9.9-4c-19.2-3.9-38-2.1-56.4,4.3
	c-33.9,11.8-67.8,23.8-101.7,35.8C347.9,367.6,346.9,368,345.3,368.5z"/>
<path d="M208.1,265.1c0.1,1.1,0.1,1.9,0.1,2.7c0,17.3,0,34.6,0,51.9c0,1.9-0.5,2.8-2.4,3.4c-32.9,11.7-65.8,23.4-98.6,35.3
	c-3.7,1.3-7.3,3.2-10.9,5.1c-1.4,0.7-2.6,1.9-3.8,3c-3.2,3.4-3.1,7.5,1,9.7c3.9,2.1,8.2,3.9,12.6,4.6c18.8,3.2,37.2,1.1,55.1-5.3
	c14.8-5.3,29.5-10.7,44.2-16c0.7-0.3,1.4-0.5,2.4-0.8c0,17.1,0,34,0,51.3c-5.1,0.8-10.2,1.8-15.4,2.5c-17,2.4-34.1,3.5-51.3,3.2
	c-32.5-0.6-64.2-6.3-95.2-16.2c-10.8-3.5-21.5-7-30.6-13.8c-4-3-7.7-6.5-10.7-10.5c-7.3-9.9-6.4-21.5,2.7-29.8
	c5.4-4.9,11.7-8.8,18-12.4c15.5-8.8,32.2-14.7,48.9-20.6c43.7-15.5,87.5-31.1,131.2-46.6C206.4,265.5,207.1,265.3,208.1,265.1z"/>
</svg>
